<?xml version="1.0" encoding="UTF-8" standalone="no"?>
<!DOCTYPE svg PUBLIC "-//W3C//DTD SVG 1.1//EN" "http://www.w3.org/Graphics/SVG/1.1/DTD/svg11.dtd">
<svg width="100%" height="100%" viewBox="0 0 774 250" version="1.1" xmlns="http://www.w3.org/2000/svg" xmlns:xlink="http://www.w3.org/1999/xlink" xml:space="preserve" xmlns:serif="http://www.serif.com/" style="fill-rule:evenodd;clip-rule:evenodd;">
    <rect x="0" y="0" width="774" height="249.22" style="fill:white;"/>
    <path d="M223.778,36.849L223.778,35.911L230.324,35.911L230.324,36.849L227.579,36.849L227.579,44.639L226.522,44.639L226.522,36.849L223.778,36.849ZM231.293,44.639L230.185,44.639L233.39,35.911L234.48,35.911L237.685,44.639L236.577,44.639L233.969,37.292L233.901,37.292L231.293,44.639ZM231.702,41.23L236.168,41.23L236.168,42.167L231.702,42.167L231.702,41.23ZM244.6,38.639C244.506,38.352 244.383,38.095 244.229,37.867C244.079,37.637 243.898,37.441 243.688,37.279C243.481,37.117 243.245,36.994 242.981,36.908C242.717,36.823 242.427,36.781 242.112,36.781C241.594,36.781 241.124,36.914 240.701,37.181C240.278,37.448 239.941,37.842 239.691,38.362C239.441,38.882 239.316,39.519 239.316,40.275C239.316,41.031 239.442,41.668 239.695,42.188C239.948,42.708 240.29,43.102 240.722,43.369C241.154,43.636 241.64,43.769 242.18,43.769C242.68,43.769 243.12,43.663 243.501,43.45C243.884,43.234 244.183,42.93 244.396,42.538C244.612,42.143 244.719,41.678 244.719,41.144L245.043,41.213L242.418,41.213L242.418,40.275L245.742,40.275L245.742,41.213C245.742,41.931 245.589,42.556 245.282,43.088C244.978,43.619 244.558,44.031 244.021,44.323C243.487,44.613 242.873,44.758 242.18,44.758C241.407,44.758 240.728,44.576 240.143,44.213C239.56,43.849 239.106,43.332 238.779,42.661C238.455,41.991 238.293,41.195 238.293,40.275C238.293,39.585 238.386,38.964 238.57,38.413C238.758,37.859 239.022,37.387 239.363,36.998C239.704,36.609 240.107,36.311 240.573,36.103C241.039,35.896 241.552,35.792 242.112,35.792C242.572,35.792 243.001,35.862 243.398,36.001C243.799,36.137 244.156,36.332 244.468,36.585C244.783,36.835 245.046,37.134 245.256,37.484C245.467,37.83 245.612,38.215 245.691,38.639L244.6,38.639Z" style="fill:rgb(236,0,140);fill-rule:nonzero;"/>
    <circle cx="128.011" cy="123.376" r="21.5" style="fill:none;stroke:black;stroke-width:3px;"/>
    <path d="M128.011,82.376C150.655,82.376 169.011,100.732 169.011,123.376C169.011,146.02 150.655,164.376 128.011,164.376C105.367,164.376 87.011,146.02 87.011,123.376C87.011,100.732 105.367,82.376 128.011,82.376ZM128.011,98.376C114.204,98.376 103.011,109.569 103.011,123.376C103.011,137.183 114.204,148.376 128.011,148.376C141.818,148.376 153.011,137.183 153.011,123.376C153.011,109.569 141.818,98.376 128.011,98.376Z" style="fill:rgb(236,0,140);fill-rule:nonzero;"/>
    <circle cx="128.011" cy="123.376" r="95.5" style="fill:none;stroke:black;stroke-width:3px;"/>
    <path d="M225.61,52.34C226.052,52.009 226.143,51.382 225.812,50.94C225.481,50.498 224.855,50.407 224.412,50.738L225.011,51.539L225.61,52.34ZM164.459,95.927C164.38,96.474 164.759,96.981 165.306,97.06L174.213,98.346C174.76,98.425 175.267,98.046 175.346,97.499C175.425,96.953 175.046,96.446 174.499,96.367L166.581,95.223L167.725,87.305C167.803,86.759 167.424,86.252 166.878,86.173C166.331,86.094 165.824,86.473 165.745,87.019L164.459,95.927ZM225.011,51.539L224.412,50.738L164.85,95.269L165.448,96.07L166.047,96.871L225.61,52.34L225.011,51.539Z" style="fill:rgb(236,0,140);fill-rule:nonzero;"/>
    <rect x="320.017" y="79.583" width="140.811" height="57.843" style="fill:none;stroke:black;stroke-width:3px;"/>
    <rect x="306.673" y="28.221" width="10.344" height="160.565" style="fill:none;stroke:black;stroke-width:3px;"/>
    <rect x="463.673" y="28.221" width="10.344" height="160.565" style="fill:none;stroke:black;stroke-width:3px;"/>
    <g transform="matrix(1,0,0,0.844112,-3.85446,16.9145)">
        <rect x="456.94" y="79.583" width="3.733" height="57.843" style="fill:rgb(236,0,140);stroke:rgb(236,0,140);stroke-width:1.08px;"/>
    </g>
    <g transform="matrix(1,0,0,1.09587,-4.86392,-19.327)">
        <path d="M461.682,138.926L461.682,201.606" style="fill:none;fill-rule:nonzero;stroke:rgb(236,0,140);stroke-width:1px;"/>
    </g>
    <path d="M355.343,216.412L355.343,209.867L356.315,209.867L356.315,210.889L356.4,210.889C356.536,210.54 356.756,210.269 357.06,210.075C357.364,209.879 357.729,209.781 358.156,209.781C358.587,209.781 358.947,209.879 359.234,210.075C359.523,210.269 359.749,210.54 359.911,210.889L359.979,210.889C360.147,210.551 360.398,210.283 360.734,210.084C361.069,209.882 361.471,209.781 361.94,209.781C362.525,209.781 363.004,209.965 363.376,210.331C363.748,210.695 363.934,211.261 363.934,212.031L363.934,216.412L362.928,216.412L362.928,212.031C362.928,211.548 362.796,211.203 362.532,210.996C362.268,210.788 361.957,210.685 361.599,210.685C361.139,210.685 360.782,210.824 360.529,211.102C360.276,211.378 360.15,211.727 360.15,212.151L360.15,216.412L359.127,216.412L359.127,211.929C359.127,211.557 359.006,211.257 358.765,211.03C358.523,210.8 358.212,210.685 357.832,210.685C357.57,210.685 357.326,210.754 357.099,210.894C356.874,211.033 356.693,211.226 356.553,211.473C356.417,211.717 356.349,212 356.349,212.321L356.349,216.412L355.343,216.412ZM367.699,216.565C367.284,216.565 366.908,216.487 366.57,216.331C366.232,216.172 365.963,215.943 365.764,215.645C365.565,215.344 365.466,214.98 365.466,214.554C365.466,214.179 365.54,213.875 365.688,213.642C365.835,213.406 366.033,213.222 366.28,213.088C366.527,212.955 366.8,212.855 367.098,212.79C367.399,212.722 367.702,212.668 368.006,212.628C368.403,212.577 368.726,212.538 368.973,212.513C369.223,212.484 369.405,212.438 369.519,212.372C369.635,212.307 369.693,212.193 369.693,212.031L369.693,211.997C369.693,211.577 369.578,211.25 369.348,211.017C369.121,210.784 368.776,210.668 368.313,210.668C367.832,210.668 367.456,210.773 367.183,210.983C366.911,211.193 366.719,211.418 366.608,211.656L365.653,211.315C365.824,210.918 366.051,210.608 366.335,210.386C366.622,210.162 366.935,210.006 367.273,209.918C367.614,209.827 367.949,209.781 368.278,209.781C368.489,209.781 368.73,209.807 369.003,209.858C369.278,209.906 369.544,210.007 369.8,210.161C370.058,210.314 370.273,210.546 370.443,210.855C370.614,211.165 370.699,211.58 370.699,212.1L370.699,216.412L369.693,216.412L369.693,215.526L369.642,215.526C369.574,215.668 369.46,215.82 369.301,215.982C369.142,216.144 368.93,216.281 368.666,216.395C368.402,216.509 368.08,216.565 367.699,216.565ZM367.852,215.662C368.25,215.662 368.585,215.584 368.858,215.428C369.134,215.271 369.341,215.07 369.48,214.823C369.622,214.575 369.693,214.315 369.693,214.043L369.693,213.122C369.651,213.173 369.557,213.22 369.412,213.263C369.27,213.303 369.105,213.338 368.918,213.369C368.733,213.398 368.553,213.423 368.376,213.446C368.203,213.466 368.063,213.483 367.955,213.497C367.693,213.531 367.449,213.587 367.222,213.663C366.997,213.737 366.815,213.85 366.676,214C366.54,214.148 366.472,214.35 366.472,214.605C366.472,214.955 366.601,215.219 366.859,215.398C367.121,215.574 367.452,215.662 367.852,215.662ZM373.284,209.867L374.853,212.543L376.421,209.867L377.58,209.867L375.466,213.139L377.58,216.412L376.421,216.412L374.853,213.872L373.284,216.412L372.125,216.412L374.205,213.139L372.125,209.867L373.284,209.867ZM385.441,207.685L385.441,216.412L384.384,216.412L384.384,208.793L384.333,208.793L382.202,210.208L382.202,209.134L384.384,207.685L385.441,207.685ZM390.9,216.531C390.337,216.531 389.836,216.435 389.396,216.242C388.958,216.048 388.61,215.78 388.352,215.436C388.096,215.09 387.957,214.688 387.934,214.23L389.008,214.23C389.031,214.511 389.127,214.754 389.298,214.959C389.468,215.161 389.691,215.317 389.967,215.428C390.242,215.538 390.548,215.594 390.883,215.594C391.258,215.594 391.59,215.529 391.88,215.398C392.17,215.267 392.397,215.085 392.562,214.852C392.727,214.619 392.809,214.35 392.809,214.043C392.809,213.722 392.729,213.439 392.57,213.195C392.411,212.948 392.178,212.754 391.872,212.615C391.565,212.476 391.19,212.406 390.747,212.406L390.048,212.406L390.048,211.469L390.747,211.469C391.093,211.469 391.397,211.406 391.658,211.281C391.923,211.156 392.129,210.98 392.276,210.753C392.427,210.526 392.502,210.259 392.502,209.952C392.502,209.656 392.437,209.399 392.306,209.181C392.175,208.962 391.991,208.791 391.752,208.669C391.516,208.547 391.238,208.486 390.917,208.486C390.616,208.486 390.332,208.541 390.065,208.652C389.8,208.76 389.585,208.918 389.417,209.125C389.249,209.33 389.158,209.577 389.144,209.867L388.122,209.867C388.139,209.409 388.276,209.009 388.535,208.665C388.793,208.318 389.131,208.048 389.549,207.855C389.97,207.662 390.431,207.565 390.934,207.565C391.474,207.565 391.937,207.675 392.323,207.894C392.71,208.109 393.006,208.395 393.214,208.75C393.421,209.105 393.525,209.489 393.525,209.901C393.525,210.392 393.396,210.811 393.137,211.158C392.881,211.504 392.533,211.744 392.093,211.878L392.093,211.946C392.644,212.037 393.075,212.271 393.384,212.649C393.694,213.024 393.849,213.489 393.849,214.043C393.849,214.517 393.72,214.943 393.461,215.321C393.205,215.696 392.856,215.992 392.413,216.208C391.97,216.423 391.465,216.531 390.9,216.531ZM398.438,216.531C397.796,216.531 397.249,216.357 396.798,216.007C396.346,215.655 396.001,215.145 395.762,214.477C395.523,213.807 395.404,212.997 395.404,212.048C395.404,211.105 395.523,210.3 395.762,209.632C396.004,208.962 396.35,208.45 396.802,208.098C397.256,207.743 397.802,207.565 398.438,207.565C399.075,207.565 399.619,207.743 400.07,208.098C400.525,208.45 400.872,208.962 401.11,209.632C401.352,210.3 401.472,211.105 401.472,212.048C401.472,212.997 401.353,213.807 401.114,214.477C400.876,215.145 400.531,215.655 400.079,216.007C399.627,216.357 399.08,216.531 398.438,216.531ZM398.438,215.594C399.075,215.594 399.569,215.287 399.921,214.673C400.273,214.06 400.45,213.185 400.45,212.048C400.45,211.293 400.369,210.649 400.207,210.118C400.048,209.587 399.818,209.182 399.516,208.904C399.218,208.625 398.859,208.486 398.438,208.486C397.808,208.486 397.315,208.797 396.96,209.419C396.604,210.038 396.427,210.915 396.427,212.048C396.427,212.804 396.506,213.446 396.666,213.975C396.825,214.503 397.053,214.905 397.352,215.181C397.653,215.456 398.015,215.594 398.438,215.594ZM406.484,216.412L406.484,209.867L407.455,209.867L407.455,210.889L407.541,210.889C407.677,210.54 407.897,210.269 408.201,210.075C408.505,209.879 408.87,209.781 409.296,209.781C409.728,209.781 410.087,209.879 410.374,210.075C410.664,210.269 410.89,210.54 411.052,210.889L411.12,210.889C411.288,210.551 411.539,210.283 411.874,210.084C412.21,209.882 412.612,209.781 413.08,209.781C413.666,209.781 414.144,209.965 414.516,210.331C414.889,210.695 415.075,211.261 415.075,212.031L415.075,216.412L414.069,216.412L414.069,212.031C414.069,211.548 413.937,211.203 413.673,210.996C413.408,210.788 413.097,210.685 412.739,210.685C412.279,210.685 411.923,210.824 411.67,211.102C411.417,211.378 411.291,211.727 411.291,212.151L411.291,216.412L410.268,216.412L410.268,211.929C410.268,211.557 410.147,211.257 409.906,211.03C409.664,210.8 409.353,210.685 408.972,210.685C408.711,210.685 408.467,210.754 408.239,210.894C408.015,211.033 407.833,211.226 407.694,211.473C407.558,211.717 407.489,212 407.489,212.321L407.489,216.412L406.484,216.412ZM416.913,216.412L416.913,209.867L417.885,209.867L417.885,210.889L417.97,210.889C418.107,210.54 418.327,210.269 418.631,210.075C418.935,209.879 419.3,209.781 419.726,209.781C420.158,209.781 420.517,209.879 420.804,210.075C421.094,210.269 421.32,210.54 421.482,210.889L421.55,210.889C421.717,210.551 421.969,210.283 422.304,210.084C422.639,209.882 423.041,209.781 423.51,209.781C424.095,209.781 424.574,209.965 424.946,210.331C425.318,210.695 425.504,211.261 425.504,212.031L425.504,216.412L424.499,216.412L424.499,212.031C424.499,211.548 424.367,211.203 424.102,210.996C423.838,210.788 423.527,210.685 423.169,210.685C422.709,210.685 422.352,210.824 422.099,211.102C421.847,211.378 421.72,211.727 421.72,212.151L421.72,216.412L420.697,216.412L420.697,211.929C420.697,211.557 420.577,211.257 420.335,211.03C420.094,210.8 419.783,210.685 419.402,210.685C419.141,210.685 418.896,210.754 418.669,210.894C418.445,211.033 418.263,211.226 418.124,211.473C417.987,211.717 417.919,212 417.919,212.321L417.919,216.412L416.913,216.412Z" style="fill:rgb(236,0,140);fill-rule:nonzero;"/>
    <path d="M305.682,190.287L305.682,201.606" style="fill:none;fill-rule:nonzero;stroke:rgb(236,0,140);stroke-width:1px;"/>
    <path d="M306.179,201.606L316.179,207.379L316.179,195.832L306.179,201.606ZM456.818,201.606L446.818,195.832L446.818,207.379L456.818,201.606ZM315.179,200.606L315.179,202.606L447.818,202.606L447.818,200.606L315.179,200.606Z" style="fill:rgb(236,0,140);fill-rule:nonzero;"/>
    <rect x="565.294" y="79.583" width="140.811" height="57.843" style="fill:none;stroke:black;stroke-width:3px;"/>
    <rect x="551.95" y="28.221" width="10.344" height="160.565" style="fill:none;stroke:black;stroke-width:3px;"/>
    <rect x="708.95" y="28.221" width="10.344" height="160.565" style="fill:none;stroke:black;stroke-width:3px;"/>
    <g transform="matrix(0.991282,0,0,0.844112,5.41913,16.9145)">
        <rect x="722.217" y="79.583" width="3.733" height="57.843" style="fill:rgb(236,0,140);stroke:rgb(236,0,140);stroke-width:0.82px;"/>
    </g>
    <g transform="matrix(1,0,0,1.09587,-1.91811,-19.327)">
        <path d="M726.958,138.926L726.958,201.606" style="fill:none;fill-rule:nonzero;stroke:rgb(236,0,140);stroke-width:1px;"/>
    </g>
    <path d="M600.62,217.031L600.62,210.485L601.591,210.485L601.591,211.508L601.676,211.508C601.813,211.158 602.033,210.887 602.337,210.694C602.641,210.498 603.006,210.4 603.432,210.4C603.864,210.4 604.223,210.498 604.51,210.694C604.8,210.887 605.026,211.158 605.188,211.508L605.256,211.508C605.424,211.17 605.675,210.901 606.01,210.702C606.345,210.501 606.747,210.4 607.216,210.4C607.801,210.4 608.28,210.583 608.652,210.95C609.024,211.313 609.211,211.88 609.211,212.65L609.211,217.031L608.205,217.031L608.205,212.65C608.205,212.167 608.073,211.822 607.809,211.614C607.544,211.407 607.233,211.303 606.875,211.303C606.415,211.303 606.059,211.443 605.806,211.721C605.553,211.997 605.426,212.346 605.426,212.769L605.426,217.031L604.404,217.031L604.404,212.548C604.404,212.175 604.283,211.876 604.042,211.648C603.8,211.418 603.489,211.303 603.108,211.303C602.847,211.303 602.603,211.373 602.375,211.512C602.151,211.651 601.969,211.845 601.83,212.092C601.694,212.336 601.625,212.619 601.625,212.94L601.625,217.031L600.62,217.031ZM612.975,217.184C612.561,217.184 612.184,217.106 611.846,216.95C611.508,216.791 611.24,216.562 611.041,216.264C610.842,215.962 610.743,215.599 610.743,215.173C610.743,214.798 610.816,214.494 610.964,214.261C611.112,214.025 611.309,213.84 611.556,213.707C611.804,213.573 612.076,213.474 612.375,213.408C612.676,213.34 612.978,213.286 613.282,213.247C613.68,213.195 614.002,213.157 614.25,213.131C614.5,213.103 614.681,213.056 614.795,212.991C614.912,212.925 614.97,212.812 614.97,212.65L614.97,212.616C614.97,212.195 614.855,211.869 614.625,211.636C614.397,211.403 614.052,211.286 613.589,211.286C613.109,211.286 612.733,211.391 612.46,211.602C612.187,211.812 611.995,212.036 611.885,212.275L610.93,211.934C611.1,211.536 611.328,211.227 611.612,211.005C611.899,210.781 612.211,210.624 612.549,210.536C612.89,210.445 613.225,210.4 613.555,210.4C613.765,210.4 614.007,210.425 614.279,210.477C614.555,210.525 614.821,210.626 615.076,210.779C615.335,210.933 615.549,211.164 615.72,211.474C615.89,211.783 615.975,212.198 615.975,212.718L615.975,217.031L614.97,217.031L614.97,216.144L614.919,216.144C614.85,216.286 614.737,216.438 614.578,216.6C614.419,216.762 614.207,216.9 613.943,217.014C613.679,217.127 613.356,217.184 612.975,217.184ZM613.129,216.281C613.527,216.281 613.862,216.202 614.135,216.046C614.41,215.89 614.618,215.688 614.757,215.441C614.899,215.194 614.97,214.934 614.97,214.661L614.97,213.741C614.927,213.792 614.833,213.839 614.689,213.881C614.546,213.921 614.382,213.957 614.194,213.988C614.01,214.016 613.829,214.042 613.653,214.065C613.48,214.085 613.339,214.102 613.231,214.116C612.97,214.15 612.725,214.205 612.498,214.282C612.274,214.356 612.092,214.468 611.953,214.619C611.816,214.766 611.748,214.968 611.748,215.224C611.748,215.573 611.877,215.837 612.136,216.016C612.397,216.193 612.728,216.281 613.129,216.281ZM618.561,210.485L620.129,213.161L621.697,210.485L622.857,210.485L620.743,213.758L622.857,217.031L621.697,217.031L620.129,214.491L618.561,217.031L617.402,217.031L619.482,213.758L617.402,210.485L618.561,210.485ZM630.718,208.303L630.718,217.031L629.661,217.031L629.661,209.411L629.61,209.411L627.479,210.826L627.479,209.752L629.661,208.303L630.718,208.303ZM636.176,217.15C635.614,217.15 635.113,217.053 634.672,216.86C634.235,216.667 633.887,216.398 633.628,216.055C633.372,215.708 633.233,215.306 633.211,214.849L634.284,214.849C634.307,215.13 634.404,215.373 634.574,215.577C634.745,215.779 634.968,215.935 635.243,216.046C635.519,216.157 635.824,216.212 636.159,216.212C636.534,216.212 636.867,216.147 637.157,216.016C637.446,215.886 637.674,215.704 637.838,215.471C638.003,215.238 638.086,214.968 638.086,214.661C638.086,214.34 638.006,214.058 637.847,213.813C637.688,213.566 637.455,213.373 637.148,213.234C636.841,213.095 636.466,213.025 636.023,213.025L635.324,213.025L635.324,212.087L636.023,212.087C636.37,212.087 636.674,212.025 636.935,211.9C637.199,211.775 637.405,211.599 637.553,211.372C637.703,211.144 637.779,210.877 637.779,210.57C637.779,210.275 637.713,210.018 637.583,209.799C637.452,209.58 637.267,209.41 637.029,209.288C636.793,209.166 636.515,209.104 636.194,209.104C635.892,209.104 635.608,209.16 635.341,209.271C635.077,209.379 634.861,209.536 634.694,209.744C634.526,209.948 634.435,210.195 634.421,210.485L633.398,210.485C633.415,210.028 633.553,209.627 633.811,209.283C634.07,208.937 634.408,208.667 634.826,208.474C635.246,208.281 635.708,208.184 636.211,208.184C636.75,208.184 637.213,208.293 637.6,208.512C637.986,208.728 638.283,209.014 638.49,209.369C638.698,209.724 638.801,210.107 638.801,210.519C638.801,211.011 638.672,211.43 638.414,211.776C638.158,212.123 637.81,212.363 637.37,212.497L637.37,212.565C637.921,212.656 638.351,212.89 638.661,213.268C638.97,213.643 639.125,214.107 639.125,214.661C639.125,215.136 638.996,215.562 638.738,215.94C638.482,216.315 638.132,216.61 637.689,216.826C637.246,217.042 636.742,217.15 636.176,217.15ZM643.715,217.15C643.073,217.15 642.526,216.975 642.074,216.626C641.622,216.273 641.277,215.764 641.039,215.096C640.8,214.425 640.681,213.616 640.681,212.667C640.681,211.724 640.8,210.918 641.039,210.251C641.28,209.58 641.627,209.069 642.078,208.717C642.533,208.362 643.078,208.184 643.715,208.184C644.351,208.184 644.895,208.362 645.347,208.717C645.801,209.069 646.148,209.58 646.387,210.251C646.628,210.918 646.749,211.724 646.749,212.667C646.749,213.616 646.63,214.425 646.391,215.096C646.152,215.764 645.807,216.273 645.355,216.626C644.904,216.975 644.357,217.15 643.715,217.15ZM643.715,216.212C644.351,216.212 644.845,215.906 645.198,215.292C645.55,214.678 645.726,213.803 645.726,212.667C645.726,211.911 645.645,211.268 645.483,210.737C645.324,210.205 645.094,209.8 644.793,209.522C644.495,209.244 644.135,209.104 643.715,209.104C643.084,209.104 642.591,209.416 642.236,210.038C641.881,210.657 641.703,211.533 641.703,212.667C641.703,213.423 641.783,214.065 641.942,214.593C642.101,215.122 642.33,215.523 642.628,215.799C642.929,216.075 643.292,216.212 643.715,216.212ZM651.76,217.031L651.76,210.485L652.732,210.485L652.732,211.508L652.817,211.508C652.953,211.158 653.174,210.887 653.478,210.694C653.782,210.498 654.147,210.4 654.573,210.4C655.005,210.4 655.364,210.498 655.651,210.694C655.941,210.887 656.167,211.158 656.328,211.508L656.397,211.508C656.564,211.17 656.816,210.901 657.151,210.702C657.486,210.501 657.888,210.4 658.357,210.4C658.942,210.4 659.421,210.583 659.793,210.95C660.165,211.313 660.351,211.88 660.351,212.65L660.351,217.031L659.345,217.031L659.345,212.65C659.345,212.167 659.213,211.822 658.949,211.614C658.685,211.407 658.374,211.303 658.016,211.303C657.556,211.303 657.199,211.443 656.946,211.721C656.694,211.997 656.567,212.346 656.567,212.769L656.567,217.031L655.544,217.031L655.544,212.548C655.544,212.175 655.424,211.876 655.182,211.648C654.941,211.418 654.63,211.303 654.249,211.303C653.988,211.303 653.743,211.373 653.516,211.512C653.292,211.651 653.11,211.845 652.97,212.092C652.834,212.336 652.766,212.619 652.766,212.94L652.766,217.031L651.76,217.031ZM662.19,217.031L662.19,210.485L663.162,210.485L663.162,211.508L663.247,211.508C663.383,211.158 663.603,210.887 663.907,210.694C664.211,210.498 664.576,210.4 665.002,210.4C665.434,210.4 665.794,210.498 666.081,210.694C666.37,210.887 666.596,211.158 666.758,211.508L666.826,211.508C666.994,211.17 667.245,210.901 667.581,210.702C667.916,210.501 668.318,210.4 668.787,210.4C669.372,210.4 669.85,210.583 670.223,210.95C670.595,211.313 670.781,211.88 670.781,212.65L670.781,217.031L669.775,217.031L669.775,212.65C669.775,212.167 669.643,211.822 669.379,211.614C669.115,211.407 668.804,211.303 668.446,211.303C667.985,211.303 667.629,211.443 667.376,211.721C667.123,211.997 666.997,212.346 666.997,212.769L666.997,217.031L665.974,217.031L665.974,212.548C665.974,212.175 665.853,211.876 665.612,211.648C665.37,211.418 665.059,211.303 664.679,211.303C664.417,211.303 664.173,211.373 663.946,211.512C663.721,211.651 663.539,211.845 663.4,212.092C663.264,212.336 663.196,212.619 663.196,212.94L663.196,217.031L662.19,217.031Z" style="fill:rgb(236,0,140);fill-rule:nonzero;"/>
    <path d="M550.959,190.287L550.958,201.606" style="fill:none;fill-rule:nonzero;stroke:rgb(236,0,140);stroke-width:1px;"/>
    <path d="M551.456,201.606L561.456,207.379L561.456,195.832L551.456,201.606ZM725.04,201.606L715.04,195.832L715.04,207.379L725.04,201.606ZM560.456,200.606L560.456,202.606L716.04,202.606L716.04,200.606L560.456,200.606Z" style="fill:rgb(236,0,140);fill-rule:nonzero;"/>
</svg>
